<?xml version="1.0" encoding="UTF-8" standalone="no"?>
<svg id="Layer_1" xmlns:rdf="http://www.w3.org/1999/02/22-rdf-syntax-ns#" xmlns="http://www.w3.org/2000/svg" xml:space="preserve" version="1.1" xmlns:cc="http://creativecommons.org/ns#" viewBox="0 0 294.825 258.982" xmlns:dc="http://purl.org/dc/elements/1.1/"><metadata id="metadata4276"><rdf:RDF><cc:Work rdf:about=""><dc:format>image/svg+xml</dc:format><dc:type rdf:resource="http://purl.org/dc/dcmitype/StillImage"/><dc:title/></cc:Work></rdf:RDF></metadata><path id="path4311" fill="#8080f2" d="m273.34 124.49-57.867-100.67c-2.102-3.64-5.985-6.325-10.188-6.325h-115.74c-4.204 0-8.088 2.685-10.19 6.325l-57.862 100.45c-2.102 3.641-2.102 8.236 0 11.877l57.867 99.847c2.102 3.64 5.986 5.501 10.19 5.501h115.73c4.203 0 8.087-1.805 10.188-5.446l57.867-100.01c2.104-3.639 2.104-7.907 0.001-11.547"/><path id="path4270" fill="#4b32c3" d="m89.545 17.49c-4.204 0-8.088 2.686-10.19 6.326l-57.867 100.45c-2.102 3.64-2.102 8.23 0 11.87l57.867 99.85c2.102 3.64 5.986 5.5 10.19 5.5h38.695v-224h-38.695zm77.035 0v224h38.7c4.2 0 8.09-1.8 10.19-5.45l57.87-100c2.1-3.64 2.1-7.91 0-11.55l-57.87-100.67c-2.1-3.644-5.99-6.33-10.19-6.33h-38.7z"/><path id="path4268" fill="#8080f2" d="m192.89 56.402 40.557 70.247c1.0153 1.7579 1.0153 3.9249 0 5.6828l-40.557 70.249c-1.0153 1.7565-2.8907 2.8414-4.9213 2.8414h-81.114c-2.0292 0-3.906-1.0849-4.9228-2.8414l-40.563-70.25c-1.0153-1.7579-1.0153-3.9249 0-5.6828l40.553-70.248c1.0153-1.7579 2.8922-2.8414 4.9228-2.8414h81.114c2.0306 0.0014 3.906 1.0849 4.9213 2.8414"/></svg>
