<?xml version="1.0" encoding="UTF-8" standalone="no"?>
<svg xmlns:rdf="http://www.w3.org/1999/02/22-rdf-syntax-ns#" xmlns="http://www.w3.org/2000/svg" xml:space="preserve" height="224" width="855" version="1.1" xmlns:cc="http://creativecommons.org/ns#" xmlns:dc="http://purl.org/dc/elements/1.1/" viewBox="0 0 855.00667 224.00101"><metadata><rdf:RDF><cc:Work rdf:about=""><dc:format>image/svg+xml</dc:format><dc:type rdf:resource="http://purl.org/dc/dcmitype/StillImage"/><dc:title/></cc:Work></rdf:RDF></metadata><path style="fill:#b2b2f7" d="m253.43 107-57.87-100.67c-2.1-3.64-5.98-6.325-10.19-6.325h-115.74c-4.204 0-8.088 2.685-10.19 6.325l-57.859 100.45c-2.102 3.641-2.102 8.236 0 11.877l57.867 99.847c2.102 3.64 5.986 5.501 10.19 5.501h115.73c4.203 0 8.087-1.805 10.188-5.446l57.867-100.01c2.104-3.639 2.104-7.907.001-11.547"/><path style="fill:#4b32c3" d="m69.633 0c-4.204 0-8.087 2.6862-10.189 6.3262l-57.868 100.45c-2.102 3.641-2.102 8.236 0 11.877l57.867 99.848c2.102 3.64 5.9855 5.5 10.189 5.5h38.699v-224h-38.699zm77.035 0v224h38.699c4.203 0 8.0884-1.8043 10.189-5.4453l57.867-100.01c2.104-3.639 2.103-7.9069 0-11.547l-57.87-100.66c-2.102-3.64-5.9845-6.3262-10.188-6.3262h-38.701z"/><path style="fill:#b2b2f7" d="m172.98 38.912 40.557 70.247c1.0153 1.7579 1.0153 3.9249 0 5.6828l-40.557 70.249c-1.0153 1.7565-2.8907 2.8414-4.9213 2.8414h-81.114c-2.0292 0-3.906-1.0849-4.9228-2.8414l-40.563-70.25c-1.0153-1.7579-1.0153-3.9249 0-5.6828l40.55-70.25c1.0153-1.7579 2.8922-2.8414 4.9228-2.8414h81.114c2.0306.0014 3.906 1.0849 4.9213 2.8414"/><text style="font-size:105px;font-family:Helvetica;fill:#000000;letter-spacing:0px;word-spacing:0px;line-height:125%" xml:space="preserve" y="140.01724" x="277.39966"><tspan x="277.39966" y="140.01724">es-beautifier</tspan></text>
</svg>
